<?xml version="1.0" encoding="utf-8"?>
<!-- Generator: Adobe Illustrator 22.1.0, SVG Export Plug-In . SVG Version: 6.00 Build 0)  -->
<svg version="1.1" id="Layer_1" xmlns="http://www.w3.org/2000/svg" xmlns:xlink="http://www.w3.org/1999/xlink" x="0px" y="0px"
	 viewBox="0 0 576 576" style="enable-background:new 0 0 576 576;" xml:space="preserve">
<style type="text/css">
	.st0{fill:#93CBAB;}
	.st1{fill:none;stroke:#44A187;stroke-width:11.6663;stroke-miterlimit:10;}
	.st2{fill:none;stroke:#44A187;stroke-width:11.666;stroke-miterlimit:10;}
	.st3{fill:#44A187;}
	.st4{fill:#939598;}
	.st5{fill:none;stroke:#000000;stroke-width:11.6663;stroke-miterlimit:10;}
	.st6{fill:none;stroke:#000000;stroke-width:11.666;stroke-miterlimit:10;}
	.st7{fill:none;stroke:#44A187;stroke-width:4.8514;stroke-miterlimit:10;}
	.st8{fill:none;stroke:#44A187;stroke-width:4.8513;stroke-miterlimit:10;}
	.st9{fill:none;stroke:#000000;stroke-width:4.7734;stroke-miterlimit:10;}
	.st10{fill:none;stroke:#000000;stroke-width:4.7733;stroke-miterlimit:10;}
</style>
<g>
	<path class="st4" d="M504.9,265.4l-14.2,15.7L371.8,175.3l-83.8,92.5l96,86.9l-14.2,15.7l-96-86.9L165.7,403l-18.8-17l220.4-243.4
		L504.9,265.4z"/>
	<polyline class="st5" points="253.6,330.1 275,305.6 289.8,317.9 	"/>
	<g>
		<line class="st6" x1="353.1" y1="217.9" x2="391.6" y2="217.9"/>
		<line class="st6" x1="372.4" y1="251" x2="372.4" y2="196.9"/>
	</g>
	<path d="M390.5,390.2c-28.3,34.3-70.9,56.3-118.5,56.3c-85,0-154.1-69.7-154.1-155.4c0-85.7,69.1-155.4,154.1-155.4
		c1.2,0,2.3,0,3.4,0c0.3,0,0.6,0,0.9,0c0.9,0,1.7,0.1,2.6,0.1c0.3,0,0.6,0,0.9,0c0.9,0,1.7,0.1,2.6,0.2c0.2,0,0.5,0,0.7,0.1
		c0.9,0.1,1.9,0.1,2.8,0.2c0.2,0,0.3,0,0.5,0c1,0.1,2.1,0.2,3.1,0.3c0.1,0,0.1,0,0.2,0c12.6,1.5,24.7,4.5,36.2,8.8c0,0,0,0,0,0
		c9.4,3.5,18.3,8,26.7,13.2l14.5-16c-22.8-14.7-49.2-24.4-77.6-27.2c-0.1,0-0.1,0-0.2,0c-1-0.1-2-0.2-3.1-0.3c-0.2,0-0.3,0-0.5,0
		c-0.9-0.1-1.8-0.1-2.8-0.2c-0.2,0-0.5,0-0.7,0c-0.9-0.1-1.7-0.1-2.6-0.1c-0.3,0-0.6,0-0.9,0c-0.8,0-1.7-0.1-2.5-0.1
		c-0.3,0-0.6,0-0.9,0c-1.1,0-2.3,0-3.4,0C175,114.7,96,193.8,96,291.1c0,97.3,79,176.4,176.1,176.4c53.9,0,102.2-24.4,134.5-62.8
		L390.5,390.2z"/>
</g>
</svg>