<?xml version="1.0" encoding="utf-8"?>
<!-- Generator: Adobe Illustrator 22.1.0, SVG Export Plug-In . SVG Version: 6.00 Build 0)  -->
<svg version="1.1" id="Layer_1" xmlns="http://www.w3.org/2000/svg" xmlns:xlink="http://www.w3.org/1999/xlink" x="0px" y="0px"
	 viewBox="0 0 576 576" style="enable-background:new 0 0 576 576;" xml:space="preserve">
<style type="text/css">
	.st0{fill:#93CBAB;}
	.st1{fill:none;stroke:#44A187;stroke-width:11.6663;stroke-miterlimit:10;}
	.st2{fill:none;stroke:#44A187;stroke-width:11.666;stroke-miterlimit:10;}
	.st3{fill:#44A187;}
	.st4{fill:#939598;}
	.st5{fill:none;stroke:#000000;stroke-width:11.6663;stroke-miterlimit:10;}
	.st6{fill:none;stroke:#000000;stroke-width:11.666;stroke-miterlimit:10;}
	.st7{fill:none;stroke:#44A187;stroke-width:4.8514;stroke-miterlimit:10;}
	.st8{fill:none;stroke:#44A187;stroke-width:4.8513;stroke-miterlimit:10;}
	.st9{fill:none;stroke:#000000;stroke-width:4.7734;stroke-miterlimit:10;}
	.st10{fill:none;stroke:#000000;stroke-width:4.7733;stroke-miterlimit:10;}
</style>
<g>
	<path d="M269.8,257.4c1.7,0,3.4,0.2,5,0.6c1.6,0.4,3.4,1.1,5.3,2v5.5c-1.9-1.1-3.6-1.8-5.2-2.3s-3.2-0.7-4.9-0.7
		c-2.1,0-4.1,0.4-5.8,1.3s-3.1,2.1-4,3.8c-1,1.6-1.4,3.4-1.4,5.4c0,2,0.5,3.8,1.4,5.4c1,1.6,2.3,2.8,4,3.7c1.7,0.9,3.7,1.3,5.8,1.3
		c1.7,0,3.2-0.2,4.7-0.7c1.5-0.5,3.4-1.3,5.7-2.6v5.5c-2,1-3.8,1.8-5.4,2.2c-1.6,0.4-3.6,0.6-5.8,0.6c-3.2,0-6-0.6-8.5-1.9
		c-2.5-1.3-4.5-3.1-5.9-5.5c-1.4-2.4-2.2-5-2.2-7.8c0-3,0.7-5.8,2.2-8.2c1.5-2.4,3.5-4.3,6.1-5.6C263.6,258,266.5,257.4,269.8,257.4
		z"/>
	<path d="M291.9,257.7v12.7h15.7v-12.7h5.8V288h-5.8v-12.8h-15.7V288H286v-30.2H291.9z"/>
	<path d="M330.9,257.7c2.8,0,5.2,0.8,6.9,2.4s2.7,3.6,2.7,6.1c0,1.7-0.4,3.2-1.3,4.5c-0.9,1.3-2.2,2.3-3.9,3c1,0.5,1.8,1.2,2.6,2.1
		c0.7,0.9,1.7,2.4,2.8,4.5c1.8,3.7,3.2,6.2,4.1,7.6h-6.5c-0.4-0.7-1.1-1.7-1.8-3.2c-1.7-3.2-2.9-5.4-3.7-6.5
		c-0.8-1.1-1.5-1.9-2.2-2.4s-1.5-0.7-2.5-0.7h-2.1V288h-5.8v-30.2H330.9z M329.6,270.6c1.5,0,2.7-0.4,3.6-1.1
		c0.9-0.8,1.3-1.8,1.3-3.1c0-1.4-0.4-2.4-1.3-3.1c-0.9-0.7-2.1-1-3.7-1h-3.6v8.4H329.6z"/>
	<path d="M354.5,257.7V288h-5.8v-30.2H354.5z"/>
	<path d="M370.1,257.4c2.9,0,5.8,0.7,8.5,2.2v5.2c-3.1-1.9-5.9-2.8-8.3-2.8c-1.5,0-2.6,0.3-3.4,0.9s-1.2,1.3-1.2,2.3
		c0,1.1,0.8,2.2,2.3,3.2c0.4,0.3,2.1,1.1,5,2.4c2.5,1.2,4.3,2.5,5.4,3.9s1.6,3.1,1.6,5.1c0,2.6-0.9,4.7-2.8,6.3
		c-1.9,1.6-4.3,2.4-7.3,2.4c-1.9,0-3.6-0.2-5-0.6c-1.4-0.4-3-1.2-4.7-2.2v-5.8c3.2,2.7,6.3,4,9.1,4c1.4,0,2.6-0.3,3.5-0.9
		c0.9-0.6,1.3-1.4,1.3-2.5c0-1.4-0.8-2.5-2.3-3.4c-1.3-0.7-2.9-1.5-4.9-2.5c-2.4-1.1-4.2-2.3-5.3-3.8s-1.8-3.1-1.8-5
		c0-2.5,0.9-4.6,2.8-6.1C364.5,258.1,367,257.4,370.1,257.4z"/>
	<path d="M409.2,257.7v4.6h-10.7V288h-5.8v-25.6h-10.7v-4.6H409.2z"/>
	<path d="M272.4,302.4v4.6h-12.6v7.8h12.6v4.6h-12.6v13.2h-5.8v-30.2H272.4z"/>
	<path d="M297.2,302.4v4.6h-13.7v7.9h13.1v4.6h-13.1v8.6h14v4.6h-19.8v-30.2H297.2z"/>
	<path d="M308.8,302.4v25.6h14.7v4.6h-20.5v-30.2H308.8z"/>
	<path d="M333.3,302.4v25.6h14.7v4.6h-20.5v-30.2H333.3z"/>
	<path d="M366.5,302c3.1,0,5.9,0.6,8.4,1.9c2.5,1.3,4.5,3.2,6,5.6c1.5,2.4,2.2,5.1,2.2,8c0,2.8-0.7,5.4-2.2,7.9
		c-1.4,2.4-3.4,4.3-6,5.6c-2.5,1.3-5.4,2-8.6,2c-3.1,0-6-0.7-8.5-2c-2.6-1.4-4.6-3.2-6-5.6c-1.4-2.4-2.1-5-2.1-7.9
		c0-2.8,0.7-5.4,2.1-7.8c1.4-2.4,3.4-4.3,5.9-5.7S363.3,302,366.5,302z M355.9,317.5c0,2,0.5,3.8,1.4,5.4c0.9,1.6,2.2,2.8,3.8,3.7
		c1.6,0.9,3.5,1.3,5.5,1.3c3.1,0,5.6-1,7.6-2.9c2-1.9,3-4.5,3-7.5c0-2-0.5-3.8-1.4-5.4c-0.9-1.6-2.2-2.9-3.8-3.7s-3.5-1.3-5.5-1.3
		c-2,0-3.9,0.4-5.5,1.3c-1.6,0.9-2.9,2.1-3.8,3.7S355.9,315.5,355.9,317.5z"/>
	<path d="M390.6,302.4l7.5,18.6l7.9-18.6h4.9l8,18.7l7.5-18.7h6L420,333h-2l-9.5-22.4L399,333h-1.9l-12.5-30.6H390.6z"/>
	<path d="M443.8,302c2.9,0,5.8,0.7,8.5,2.2v5.2c-3.1-1.9-5.9-2.8-8.3-2.8c-1.5,0-2.6,0.3-3.4,0.9s-1.2,1.3-1.2,2.3
		c0,1.1,0.8,2.2,2.3,3.2c0.4,0.3,2.1,1.1,5,2.4c2.5,1.2,4.3,2.5,5.4,3.9s1.6,3.1,1.6,5.1c0,2.6-0.9,4.7-2.8,6.3
		c-1.9,1.6-4.3,2.4-7.3,2.4c-1.9,0-3.6-0.2-5-0.6c-1.4-0.4-3-1.2-4.7-2.2v-5.8c3.2,2.7,6.3,4,9.1,4c1.4,0,2.6-0.3,3.5-0.9
		c0.9-0.6,1.3-1.4,1.3-2.5c0-1.4-0.8-2.5-2.3-3.4c-1.3-0.7-2.9-1.5-4.9-2.5c-2.4-1.1-4.2-2.3-5.3-3.8s-1.8-3.1-1.8-5
		c0-2.5,0.9-4.6,2.8-6.1C438.2,302.8,440.7,302,443.8,302z"/>
	<path d="M464.5,302.4v12.7h15.7v-12.7h5.8v30.2h-5.8v-12.8h-15.7v12.8h-5.8v-30.2H464.5z"/>
	<path d="M498.7,302.4v30.2h-5.8v-30.2H498.7z"/>
	<path d="M517.2,302.4c2.8,0,5.1,0.8,6.9,2.5c1.8,1.6,2.6,3.7,2.6,6.3c0,2.6-0.9,4.7-2.7,6.3c-1.8,1.6-4.1,2.4-7.1,2.4h-5.6v12.7
		h-5.8v-30.2H517.2z M515.7,315.4c1.6,0,2.8-0.4,3.6-1.1c0.9-0.7,1.3-1.8,1.3-3.2c0-2.8-1.8-4.2-5.4-4.2h-4v8.4H515.7z"/>
	<path d="M277.6,350.1v2.4c-3.4-1.8-6.8-2.7-10.1-2.7c-3.5,0-6.5,1.2-8.9,3.6s-3.6,5.4-3.6,9c0,3.6,1.2,6.6,3.6,9
		c2.4,2.3,5.4,3.5,9.1,3.5c3.1,0,6.5-1,10.1-2.9v2.3c-3.4,1.8-6.7,2.7-10.1,2.7c-4.3,0-7.9-1.4-10.8-4.2s-4.3-6.2-4.3-10.4
		c0-4.2,1.5-7.6,4.4-10.4c2.9-2.8,6.5-4.2,10.5-4.2C270.8,347.8,274.1,348.6,277.6,350.1z"/>
	<path d="M306.7,348.1v28.4h-2.2v-13.5h-19v13.5h-2.2v-28.4h2.2v13.1h19v-13.1H306.7z"/>
	<path d="M335.4,348.1h2.2v15.5c0,4.2-1.1,7.5-3.3,9.8c-2.2,2.3-5.1,3.5-8.6,3.5c-3.5,0-6.4-1.1-8.6-3.4c-2.2-2.3-3.3-5.4-3.3-9.4
		v-16h2.2v15.9c0,3.4,0.9,6,2.7,8s4.1,2.9,7,2.9c2.9,0,5.2-1,7-2.9c1.8-1.9,2.7-4.7,2.7-8.2V348.1z"/>
	<path d="M344.7,348.1h7.3c3.1,0,5.4,0.7,7,2c1.6,1.3,2.4,3.1,2.4,5.4c0,3.3-1.8,5.6-5.4,6.9c0.9,0.4,2.2,1.9,3.8,4.3l6.4,9.8h-2.6
		l-5-7.8c-1.7-2.6-2.9-4.2-3.9-4.9c-0.9-0.6-2.3-1-4-1h-3.8v13.6h-2.2V348.1z M346.9,350v11.1h4.7c2.4,0,4.2-0.5,5.5-1.5
		c1.3-1,1.9-2.3,1.9-4.1c0-1.8-0.6-3.1-1.9-4.1c-1.3-1-3.1-1.5-5.6-1.5H346.9z"/>
	<path d="M393.4,350.1v2.4c-3.4-1.8-6.8-2.7-10.1-2.7c-3.5,0-6.5,1.2-8.9,3.6s-3.6,5.4-3.6,9c0,3.6,1.2,6.6,3.6,9
		c2.4,2.3,5.4,3.5,9.1,3.5c3.1,0,6.5-1,10.1-2.9v2.3c-3.4,1.8-6.7,2.7-10.1,2.7c-4.3,0-7.9-1.4-10.8-4.2s-4.3-6.2-4.3-10.4
		c0-4.2,1.5-7.6,4.4-10.4c2.9-2.8,6.5-4.2,10.5-4.2C386.6,347.8,389.9,348.6,393.4,350.1z"/>
	<path d="M422.5,348.1v28.4h-2.2v-13.5h-19v13.5h-2.2v-28.4h2.2v13.1h19v-13.1H422.5z"/>
</g>
<g>
	<path class="st0" d="M234,306.4l-5.9,6.5l-49.4-44l-34.8,38.5l39.9,36.1l-5.9,6.5L138,314l-45,49.7l-7.8-7.1l91.6-101.2L234,306.4z
		"/>
	<polyline class="st7" points="129.5,333.4 138.4,323.2 144.6,328.3 	"/>
	<g>
		<line class="st8" x1="170.9" y1="286.7" x2="186.9" y2="286.7"/>
		<line class="st8" x1="178.9" y1="300.5" x2="178.9" y2="278"/>
	</g>
	<path class="st3" d="M186.5,358.4c-11.8,14.3-29.5,23.4-49.3,23.4c-35.3,0-64.1-29-64.1-64.6c0-35.6,28.7-64.6,64.1-64.6
		c0.5,0,1,0,1.4,0c0.1,0,0.2,0,0.4,0c0.4,0,0.7,0,1.1,0c0.1,0,0.2,0,0.4,0c0.4,0,0.7,0,1.1,0.1c0.1,0,0.2,0,0.3,0
		c0.4,0,0.8,0.1,1.2,0.1c0.1,0,0.1,0,0.2,0c0.4,0,0.9,0.1,1.3,0.1c0,0,0,0,0.1,0c5.2,0.6,10.3,1.9,15.1,3.7c0,0,0,0,0,0
		c3.9,1.5,7.6,3.3,11.1,5.5l6-6.7c-9.5-6.1-20.5-10.1-32.3-11.3c0,0,0,0-0.1,0c-0.4,0-0.8-0.1-1.3-0.1c-0.1,0-0.1,0-0.2,0
		c-0.4,0-0.8-0.1-1.2-0.1c-0.1,0-0.2,0-0.3,0c-0.4,0-0.7,0-1.1-0.1c-0.1,0-0.2,0-0.4,0c-0.4,0-0.7,0-1.1,0c-0.1,0-0.2,0-0.4,0
		c-0.5,0-0.9,0-1.4,0c-40.4,0-73.2,32.9-73.2,73.4c0,40.5,32.9,73.4,73.2,73.4c22.4,0,42.5-10.2,55.9-26.1L186.5,358.4z"/>
</g>
</svg>